<svg id="color" enable-background="new 0 0 24 24" height="512" viewBox="0 0 24 24" width="512" xmlns="http://www.w3.org/2000/svg"><path d="m12 6c-3.309 0-6 2.691-6 6s2.691 6 6 6 6-2.691 6-6-2.691-6-6-6z" fill="#4caf50"/><path d="m1.5 12c0-5.79 4.71-10.5 10.5-10.5 2.079 0 4.056.607 5.732 1.708l-1.512 1.512c-.472.47-.139 1.28.53 1.28h4.5c.414 0 .75-.336.75-.75v-4.5c0-.665-.807-1.004-1.28-.53l-1.914 1.914c-1.971-1.369-4.323-2.133-6.806-2.133-6.617 0-12 5.382-12 11.999 0 1.173.173 2.339.513 3.466.119.395.534.621.935.502.396-.12.621-.538.501-.935-.298-.987-.449-2.007-.449-3.033z" fill="#607d8b"/><path d="m23.487 8.534c-.12-.397-.535-.623-.935-.502-.396.12-.621.538-.501.935.298.987.449 2.007.449 3.033 0 5.79-4.71 10.5-10.5 10.5-2.075 0-4.048-.604-5.723-1.701l1.506-1.522c.468-.473.132-1.277-.533-1.277h-4.5c-.2 0-.393.08-.533.223s-.219.335-.217.535l.05 4.499c.007.667.819.99 1.283.519l1.878-1.898c1.967 1.362 4.312 2.121 6.789 2.121 6.617 0 12-5.383 12-12 0-1.172-.173-2.338-.513-3.465z" fill="#607d8b"/><path d="m14.8 14.6c-.332.443-.959.531-1.399.2l-2-1.75c-.252-.188-.4-.485-.4-.8v-3.25c0-.552.447-1 1-1s1 .448 1 1v2.75l1.6 1.45c.441.331.531.958.199 1.4z" fill="#fff"/><path d="m12 6c-3.309 0-6 2.691-6 6s2.691 6 6 6v-4.426l-.6-.525c-.252-.188-.4-.485-.4-.8v-3.249c0-.552.447-1 1-1z" fill="#429846"/><path d="m12 .001c-6.617 0-12 5.382-12 11.999 0 1.173.173 2.339.513 3.466.097.324.394.534.718.534.071 0 .144-.01.216-.032.396-.12.621-.538.501-.935-.297-.987-.448-2.007-.448-3.033 0-5.79 4.71-10.5 10.5-10.5z" fill="#546d79"/><path d="m7.25 18h-4.5c-.2 0-.393.08-.533.223s-.219.335-.217.535l.05 4.499c.004.449.374.743.757.743.186 0 .374-.069.526-.223l1.878-1.898c1.967 1.361 4.312 2.12 6.789 2.12v-1.499c-2.075 0-4.048-.604-5.723-1.701l1.506-1.522c.468-.473.132-1.277-.533-1.277z" fill="#546d79"/><path d="m12 8c-.553 0-1 .448-1 1v3.25c0 .315.148.611.4.8l.6.525z" fill="#dedede"/></svg>